# Blender 4.0.1
# www.blender.org
mtllib 18370_Shinto-Torii_Gate_v1.mtl
o 18370_Shinto-Torii_Gate_v1
v 0.267461 -0.082652 3.915408
v -0.051452 -0.175597 6.119061
v -0.334722 -0.385702 5.169181
v -2.246025 -0.389723 5.191311
v -3.594167 -0.122720 5.551282
v -3.422475 -0.397543 5.126851
v -2.226461 -0.392961 4.926754
v -0.267249 -0.078929 3.917897
v -2.180749 -0.181574 5.307434
v -2.565504 -0.035184 5.389011
v -3.153288 -0.288415 4.679937
v -2.218371 -0.287671 4.524497
v -0.181694 -0.083886 4.514289
v -1.844543 -0.215311 4.512508
v -2.015965 -0.065955 4.071454
v -1.954436 -0.156777 3.524700
v -2.026964 0.003613 3.572003
v -2.006661 -0.083106 3.583101
v -2.314027 -0.079204 3.916394
v -3.006743 -0.075519 3.913056
v -3.006824 -0.077008 3.582540
v -2.310416 -0.078799 4.135508
v -1.656009 -0.164073 4.071830
v -1.666798 -0.166371 4.510642
v -1.605826 -0.083732 4.061272
v -1.592075 -0.038391 4.514938
v -1.589428 -0.073273 3.573710
v -1.300555 -0.078733 4.135067
v -1.295456 -0.079470 3.916423
v -2.003915 -0.096530 4.511889
v -2.155012 -0.292233 4.920284
v -3.155478 -0.290187 5.061582
v -3.555065 -0.390655 5.399339
v 3.554643 -0.391643 5.398843
v 3.418594 -0.397068 5.123673
v 2.244740 -0.392251 5.187447
v 0.233709 -0.181324 6.031884
v 0.393990 -0.064280 5.338388
v 0.328266 -0.385794 5.175479
v 2.257706 -0.122028 5.337811
v 3.586726 -0.181751 5.524626
v 3.594167 0.122721 5.551282
v 2.565504 0.035185 5.389011
v 2.139310 -0.393896 4.923732
v 2.124965 -0.293658 4.920653
v 3.154036 -0.288925 4.680771
v 2.199384 -0.289213 4.524775
v 0.180609 -0.082923 4.513004
v 2.026964 -0.003613 3.572003
v 1.936054 -0.169734 3.531353
v 2.000722 -0.098765 4.056303
v 1.974283 -0.145621 4.513221
v 2.015965 0.065956 4.071454
v 3.006724 -0.078082 3.582862
v 3.006885 -0.075185 3.913349
v 2.314292 -0.079347 3.916341
v 2.309893 -0.077313 4.137269
v 2.005759 -0.083121 3.582620
v 1.592076 0.038384 4.514899
v 1.642881 -0.153033 3.726602
v 1.593415 -0.066845 4.071808
v 1.295861 -0.078740 3.916876
v 1.295508 0.079439 3.916558
v 1.604362 -0.082566 3.582520
v 1.299255 -0.078642 4.135548
v 2.003915 0.096531 4.511889
v 1.774262 -0.215696 4.513129
v 1.620893 -0.118843 4.512759
v 3.153868 -0.294132 5.060061
v -3.554643 0.391644 5.398843
v -3.418593 0.397068 5.123673
v -2.244843 0.392241 5.187468
v -0.245858 0.177441 6.023104
v -0.039185 0.182308 6.105644
v -0.386321 0.159087 5.302992
v -0.328278 0.385742 5.175531
v -2.257706 0.122028 5.337811
v -3.586726 0.181752 5.524626
v -2.139576 0.393906 4.923773
v -2.123068 0.293970 4.920719
v -3.153945 0.288791 4.680681
v -2.191301 0.288824 4.523837
v -0.181242 0.083110 4.513911
v -1.936054 0.169734 3.531353
v -2.000722 0.098766 4.056303
v -1.974283 0.145622 4.513222
v -2.314261 0.079355 3.916358
v -3.006724 0.078083 3.582862
v -3.006880 0.075174 3.913380
v -2.309893 0.077314 4.137269
v -2.005759 0.083121 3.582620
v -1.642881 0.153033 3.726602
v -1.295899 0.078716 3.917008
v -1.593415 0.066846 4.071808
v -1.604362 0.082566 3.582520
v -1.299345 0.078335 4.135853
v -1.774262 0.215697 4.513130
v -1.620906 0.118857 4.512749
v -3.156268 0.290609 5.062068
v -0.267574 0.082687 3.915176
v 0.366100 0.321442 5.226781
v 2.246102 0.389724 5.191319
v 3.422475 0.397544 5.126851
v 2.228103 0.392988 4.926951
v 0.931269 0.395680 5.144332
v 0.267288 0.078942 3.917827
v 2.180749 0.181575 5.307434
v 2.221830 0.287499 4.525371
v 0.180636 0.084546 4.511851
v 1.844543 0.215311 4.512506
v 1.954436 0.156778 3.524700
v 2.006661 0.083107 3.583101
v 2.313933 0.079232 3.916401
v 3.006734 0.075510 3.913083
v 3.006824 0.077008 3.582540
v 2.310414 0.078800 4.135508
v 1.656009 0.164074 4.071830
v 1.666658 0.166415 4.511360
v 1.605826 0.083733 4.061272
v 1.589432 0.073269 3.573681
v 1.300261 0.078086 4.136354
v 3.153462 0.288113 4.680128
v 3.155695 0.290158 5.061637
v 3.555065 0.390656 5.399339
v 2.149243 0.292734 4.920519
v -0.350564 -0.211796 5.533180
v 0.346464 -0.212508 5.530130
v 0.350564 0.211797 5.533180
v 0.353770 0.150057 5.883264
v 0.105051 0.171310 5.702106
v -0.346466 0.212507 5.530132
v -0.390693 -0.096984 5.327208
v -0.363263 -0.156421 5.818327
v 0.359535 -0.150406 5.856992
v 0.195692 0.176501 6.064814
v -0.359535 0.150407 5.856992
v -0.289820 -0.171898 5.980776
v 0.154662 -0.182661 5.786386
v 0.111168 -0.184465 5.913223
v -0.143924 -0.185092 5.867246
v -0.040382 -0.182820 5.956139
v -0.111420 0.181546 5.710960
v 0.007917 0.183233 5.955348
v -0.119482 -0.178320 5.717290
v 0.133468 0.184183 5.896785
v -0.142555 0.183094 5.884930
v 0.049035 -0.173526 5.683347
v -1.928276 -0.171605 0.066646
v -1.768022 -0.203770 0.067965
v -2.012466 -0.024805 0.069649
v -1.927024 0.182835 0.063213
v -1.680824 0.171382 0.066883
v -1.600755 0.033827 0.067733
v -1.631259 -0.119567 0.066100
v 1.927027 -0.182845 0.063241
v 1.680870 -0.171301 0.066598
v 1.600755 -0.033827 0.067734
v 1.631197 0.119624 0.066350
v 1.768021 0.203769 0.067964
v 1.928231 0.171532 0.066380
v 2.012466 0.024805 0.069650
vn -0.1019 -0.9320 0.3479
vn -0.4862 -0.6335 -0.6019
vn -0.0696 -0.6900 -0.7205
vn -0.3046 -0.3465 -0.8872
vn -0.2940 0.8928 0.3414
vn -0.2820 -0.6005 0.7482
vn 0.0697 -0.3047 0.9499
vn 0.0454 -0.8565 0.5141
vn -0.0305 -0.7308 -0.6819
vn 0.0530 -0.7053 -0.7069
vn -0.4477 -0.3473 -0.8240
vn -0.6886 -0.1915 0.6994
vn -0.6560 -0.7017 0.2780
vn 0.0975 -0.7255 0.6813
vn -0.0402 -0.8666 0.4975
vn 0.3027 -0.3688 -0.8788
vn -0.4595 -0.6314 -0.6247
vn -0.0864 -0.6825 -0.7258
vn -0.7179 -0.6959 -0.0209
vn -0.5375 -0.2321 -0.8107
vn -0.0752 -0.6911 -0.7188
vn -0.5803 -0.5772 -0.5745
vn -0.5816 0.5784 -0.5719
vn -0.6418 -0.0365 -0.7660
vn -0.3093 -0.9004 0.3061
vn -0.5805 0.5722 0.5793
vn -0.5812 -0.5744 0.5764
vn -0.6720 -0.6140 -0.4139
vn -0.5040 -0.5751 0.6444
vn 0.7020 -0.6662 0.2518
vn 0.3667 -0.5052 -0.7812
vn 0.5964 -0.8026 0.0125
vn 0.5050 -0.5733 0.6452
vn 0.5069 0.5674 0.6489
vn 0.7346 0.5985 0.3196
vn 0.2969 -0.8914 0.3425
vn 0.7497 -0.5854 -0.3087
vn -0.7585 -0.5962 -0.2629
vn 0.2880 -0.9083 0.3035
vn 0.6037 -0.1005 -0.7908
vn -0.6215 -0.5827 -0.5236
vn -0.6161 0.5863 -0.5260
vn -0.4393 0.3489 -0.8278
vn 0.4812 -0.6310 -0.6085
vn 0.7400 -0.1316 0.6596
vn -0.0938 -0.2262 0.9696
vn 0.6883 0.1927 0.6994
vn 0.6555 -0.7022 0.2780
vn 0.6543 0.7041 0.2761
vn 0.6938 -0.2521 0.6746
vn 0.0724 -0.6910 -0.7193
vn 0.4367 -0.3646 -0.8224
vn -0.0689 -0.6951 -0.7156
vn 0.5565 -0.8308 -0.0029
vn 0.5804 -0.5724 0.5792
vn 0.5809 0.5741 0.5771
vn 0.3095 0.9004 0.3059
vn 0.3023 -0.9001 0.3138
vn 0.5041 0.5762 0.6433
vn 0.5152 -0.5521 0.6555
vn 0.7167 0.6094 0.3390
vn 0.6754 -0.7009 0.2292
vn 0.6708 -0.7032 -0.2355
vn -0.4974 -0.3406 -0.7979
vn -0.6850 -0.7285 -0.0052
vn -0.3054 -0.9003 0.3102
vn -0.2881 0.9072 0.3067
vn -0.7333 -0.5996 0.3205
vn -0.5053 -0.5718 0.6463
vn 0.4370 -0.3612 -0.8238
vn 0.4841 0.6355 -0.6015
vn -0.4799 0.6303 -0.6103
vn 0.0382 0.8537 0.5194
vn -0.0057 0.9503 0.3114
vn -0.7185 -0.2241 0.6584
vn -0.6654 0.3399 0.6647
vn 0.0933 0.2265 0.9695
vn -0.0765 0.8044 0.5891
vn -0.6555 0.7022 0.2780
vn -0.6937 0.2521 0.6746
vn -0.4357 0.3633 -0.8235
vn 0.0689 0.6879 -0.7225
vn -0.5565 0.8309 -0.0029
vn -0.3028 0.9004 0.3123
vn -0.5151 0.5522 0.6555
vn -0.7167 -0.6093 0.3393
vn -0.6754 0.7009 0.2292
vn -0.6708 0.7032 -0.2355
vn 0.4984 0.3384 -0.7981
vn 0.6851 0.7285 -0.0052
vn 0.7591 0.5955 -0.2628
vn 0.3059 0.8994 0.3122
vn -0.0718 0.6905 -0.7197
vn -0.3106 0.3356 -0.8893
vn -0.0532 0.6947 -0.7173
vn 0.0722 0.6806 -0.7291
vn 0.3010 0.3743 -0.8771
vn 0.2824 0.6033 0.7459
vn 0.1606 0.6948 0.7011
vn -0.0682 0.3018 0.9509
vn -0.0409 0.8429 0.5365
vn 0.4482 0.3473 -0.8237
vn 0.4581 0.6304 -0.6267
vn 0.0870 0.6858 -0.7226
vn 0.7178 0.6959 -0.0210
vn 0.5382 0.2336 -0.8098
vn 0.0761 0.6912 -0.7187
vn 0.5803 0.5772 -0.5745
vn 0.5813 -0.5784 -0.5723
vn 0.6418 0.0365 -0.7660
vn 0.6720 0.6140 -0.4139
vn -0.7018 0.6666 0.2511
vn -0.3661 0.4924 -0.7896
vn -0.5963 0.8026 0.0124
vn -0.5054 0.5694 0.6484
vn -0.7498 0.5853 -0.3085
vn -0.6041 0.0989 -0.7908
vn 0.0278 0.7292 -0.6837
vn 0.6218 0.5800 -0.5262
vn 0.6174 -0.5843 -0.5266
vn 0.6386 -0.7451 0.1923
vn -0.5606 0.8074 0.1841
vn 0.8097 0.4817 0.3352
vn -0.5630 0.8038 0.1920
vn -0.6310 -0.7546 0.1798
vn -0.8682 -0.4502 0.2086
vn 0.8390 -0.4528 0.3016
vn 0.4048 0.6184 0.6736
vn -0.8445 0.4571 0.2792
vn -0.5784 -0.6225 0.5273
vn -0.5747 -0.8075 0.1326
vn -0.1818 -0.7394 0.6482
vn 0.4483 -0.6457 0.6181
vn -0.3961 -0.8272 -0.3986
vn -0.0980 -0.6165 0.7812
vn 0.0978 -0.8450 -0.5257
vn 0.5231 -0.8416 -0.1346
vn 0.4222 -0.8242 0.3773
vn 0.3923 0.8297 0.3970
vn -0.3458 0.8182 0.4594
vn -0.4897 0.6357 0.5967
vn 0.4671 0.8631 -0.1919
vn 0.0037 0.8070 -0.5906
vn -0.0747 0.6656 0.7426
vn -0.4457 0.8636 -0.2358
vn -0.7983 -0.0569 -0.5996
vn -0.4294 0.6706 -0.6049
vn 0.1373 -0.7679 -0.6257
vn 0.6366 -0.4432 -0.6312
vn -0.6386 0.4449 -0.6279
vn -0.4103 -0.6721 -0.6164
vn -0.7662 -0.1305 -0.6292
vn -0.1375 0.7678 -0.6258
vn 0.7653 0.1302 -0.6304
vn 0.4272 -0.6695 -0.6076
vn 0.4150 0.6747 -0.6104
vn 0.7989 0.0555 -0.5990
vn 0.1598 -0.0262 0.9868
vn 0.0413 -0.7257 -0.6867
vn -0.0429 0.7253 -0.6870
vn -0.1598 0.0262 0.9868
vt 0.247381 1.000000
vt 0.000029 1.000000
vt 0.078416 1.000000
vt 0.257117 -0.000000
vt 0.255325 0.000000
vt 0.254894 0.000000
vt 0.081790 1.000000
vt 0.077335 1.000000
vt 0.083874 0.991768
vt 0.085239 1.000000
vt 0.000268 0.988736
vt -0.000004 1.000000
vt -0.000003 1.000000
vt 0.241924 1.000000
vt 0.076132 1.000000
vt 0.257742 0.000000
vt 0.100239 0.984783
vt 0.037338 0.004142
vt 0.114475 0.515205
vt 0.183254 0.005797
vt 0.098224 0.000000
vt 0.250000 0.000000
vt 0.141722 0.258760
vt 0.110923 0.005931
vt 0.120966 0.272457
vt 0.255293 0.000000
vt 0.250000 0.000000
vt 0.250004 0.000000
vt 0.102475 0.000000
vt 0.221314 0.001974
vt 0.000361 0.011567
vt 0.075852 0.001561
vt 0.000369 0.012397
vt 0.000228 0.990525
vt 0.000112 1.000000
vt 0.229356 1.000000
vt 0.075023 1.000000
vt -0.000005 1.000000
vt -0.000003 1.000000
vt -0.000001 1.000000
vt 0.085076 0.001237
vt 0.091316 -0.003436
vt 0.137335 0.004387
vt 0.031234 0.006238
vt 0.104775 0.500663
vt 0.158941 0.004032
vt 0.114232 0.414939
vt 0.101788 0.000000
vt 0.000250 0.990080
vt 0.000029 1.000000
vt 0.000112 1.000000
vt 0.076122 1.000000
vt 0.198400 1.000000
vt 0.229570 1.000000
vt 0.229696 1.000000
vt 0.242231 1.000000
vt 0.137336 0.004387
vt 0.031233 0.006236
vt 0.158938 0.004034
vt 0.103071 0.000000
vt 0.257645 0.000000
vt 0.085218 1.000000
vt 0.078097 1.000000
vt 0.257203 0.000000
vt 0.254921 0.000000
vt 0.243560 1.000000
vt 0.077320 1.000000
vt 0.000276 0.988822
vt 0.100235 0.984820
vt 0.037337 0.004142
vt 0.097669 0.000000
vt 0.110931 0.005605
vt 0.118892 0.000000
vt 0.221293 0.001968
vt 0.084154 0.993768
vt 0.000364 0.012044
vt 0.075578 0.001583
vt 0.000361 0.012889
vt 0.246159 1.000000
vt 0.245623 1.000000
vt 0.256872 1.000000
vt 0.246160 1.000000
vt 0.245622 1.000000
vt 0.246794 1.000000
vt 0.248530 1.000000
vt 0.362866 1.000000
vt 0.296199 1.000000
vt 0.290689 1.000000
vt 0.412163 1.000000
vt 0.339989 1.000000
vt 0.343645 1.000000
vt 0.441510 1.000000
vt 0.432320 1.000000
vt 0.291059 1.000000
vt 0.343038 1.000000
vt 0.348143 1.000000
vt 0.361332 1.000000
vt 0.327723 1.000000
vt 0.318509 1.000000
vt 0.464122 1.000000
vt 0.454232 1.000000
vt 0.318997 1.000000
vt 0.221519 0.985070
vt 0.097859 0.986488
vt 0.037576 0.988789
vt 0.150335 0.984932
vt 0.150367 0.984945
vt 0.100764 0.983916
vt 0.214281 0.991130
vt 0.037579 0.988789
vt 0.225207 0.502197
vt 0.214281 0.991130
vt 0.148574 0.487138
vt 0.097897 0.986421
vt 0.144052 0.489936
vt 0.100753 0.983881
vt 0.144052 0.489936
vt 0.221519 0.985070
vt 0.148583 0.487140
vt 0.046926 1.000000
vt 0.161030 0.495207
vt 0.153822 0.259533
vt 0.086799 0.990567
vt 0.126788 0.263149
vt 0.159708 0.258276
vt 0.125380 0.485215
vt 0.133373 0.000000
vt 0.129854 -0.001460
vt 0.086936 0.991023
vt 0.084174 -0.000341
s 1
f 3/1/1 6/2/2 7/3/3
f 13/4/4 100/5/5 8/6/6
f 9/7/7 4/8/8 3/1/1
f 31/9/9 44/10/10 7/3/3
f 32/11/11 7/3/3 6/2/2
f 4/8/8 6/2/2 3/1/1
f 5/12/12 33/13/13 4/8/8 9/7/7
f 39/14/14 3/1/1 36/15/15
f 8/6/6 48/16/16 13/4/4
f 148/17/17 14/18/18 16/19/19
f 14/18/18 30/20/20 16/19/19
f 12/21/21 30/20/20 14/18/18
f 21/22/22 88/22/23 17/22/24
f 19/22/25 89/22/26 20/22/27
f 20/22/27 89/22/26 21/22/22
f 20/22/27 21/22/22 19/22/25
f 17/22/24 18/22/28 21/22/22
f 22/22/29 19/22/25 18/22/28
f 25/23/30 24/24/31 23/25/32
f 24/24/31 14/18/18 23/25/32
f 28/22/33 96/22/34 94/22/35
f 1/26/36 27/27/37 64/28/38
f 25/22/30 27/27/37 28/22/33
f 28/22/33 29/22/39 96/22/34
f 29/22/39 28/22/33 27/27/37
f 13/29/4 24/24/31 26/30/40
f 24/24/31 13/29/4 14/18/18
f 31/9/9 11/31/41 12/32/21
f 32/11/11 81/33/42 11/31/41
f 11/31/41 31/9/9 32/11/11
f 99/34/43 32/11/11 6/2/2
f 7/3/3 32/11/11 31/9/9
f 35/35/44 36/15/15 3/1/1
f 38/36/45 39/14/14 40/37/46
f 42/12/47 34/38/48 124/39/49
f 42/12/47 41/40/50 34/38/48
f 36/15/15 35/35/44 34/38/48
f 48/16/16 12/41/21 13/4/4
f 48/16/16 47/42/51 12/41/21
f 52/43/52 67/44/53 50/45/54
f 55/22/55 114/22/56 113/22/57
f 113/22/57 56/22/58 55/22/55
f 56/22/58 113/22/57 116/22/59
f 116/22/59 57/22/60 56/22/58
f 57/22/60 116/22/59 53/22/61
f 57/22/60 53/22/61 51/22/62
f 51/22/62 58/22/63 57/22/60
f 56/22/58 57/22/60 58/22/63
f 67/44/53 68/46/64 60/47/65
f 62/22/66 63/22/67 1/26/36
f 61/22/68 65/22/69 64/28/38
f 65/22/69 63/22/67 62/22/66
f 65/22/69 62/22/66 64/28/38
f 52/43/52 47/48/51 67/44/53
f 69/49/70 103/50/71 35/35/44
f 44/10/10 69/49/70 35/35/44
f 71/51/72 72/52/73 105/53/74
f 132/54/75 75/55/76 77/37/77
f 75/55/76 76/56/78 77/37/77
f 5/12/12 70/38/79 33/13/13
f 5/12/12 78/40/80 70/38/79
f 72/52/73 71/51/72 70/38/79
f 86/57/81 97/58/82 84/45/83
f 87/22/84 19/22/25 22/22/29
f 22/22/29 90/22/85 87/22/84
f 90/22/85 22/22/29 15/22/86
f 90/22/85 15/22/86 85/22/87
f 85/22/87 91/22/88 90/22/85
f 87/22/84 90/22/85 91/22/88
f 97/58/82 98/59/89 92/47/90
f 94/22/35 96/22/34 95/28/91
f 96/22/34 29/22/39 93/22/92
f 96/22/34 93/22/92 95/28/91
f 86/57/81 82/60/93 97/58/82
f 98/59/89 83/61/94 26/30/40
f 99/34/43 6/2/2 71/51/72
f 79/62/95 99/34/43 71/51/72
f 105/53/74 103/50/71 104/63/96
f 109/64/97 1/26/36 106/65/98
f 101/66/99 38/36/45 107/7/100
f 107/7/100 102/67/101 101/66/99
f 123/68/102 104/63/96 103/50/71
f 102/67/101 103/50/71 105/53/74
f 105/53/74 101/66/99 102/67/101
f 76/56/78 105/53/74 72/52/73
f 106/65/98 83/61/94 109/64/97
f 160/69/103 110/70/104 111/19/105
f 110/70/104 66/20/106 111/19/105
f 108/71/107 66/20/106 110/70/104
f 115/22/108 54/22/109 49/22/110
f 114/22/56 55/22/55 115/22/108
f 114/22/56 115/22/108 113/22/57
f 49/22/110 112/22/111 115/22/108
f 116/22/59 113/22/57 112/22/111
f 119/23/112 118/72/113 117/25/114
f 118/72/113 110/70/104 117/25/114
f 106/65/98 1/26/36 63/22/67
f 121/22/115 65/22/69 61/22/68
f 100/5/5 120/27/116 95/28/91
f 119/22/112 120/27/116 121/22/115
f 121/22/115 63/22/67 65/22/69
f 63/22/67 121/22/115 120/27/116
f 109/73/97 118/72/113 59/74/117
f 118/72/113 109/73/97 110/70/104
f 125/75/118 122/76/119 108/77/107
f 123/68/102 46/78/120 122/76/119
f 122/76/119 125/75/118 123/68/102
f 69/49/70 123/68/102 103/50/71
f 104/63/96 123/68/102 125/75/118
f 127/79/121 3/1/1 39/14/14
f 101/66/99 128/80/122 129/81/123
f 129/81/123 38/36/45 101/66/99
f 131/82/124 101/66/99 76/56/78
f 132/54/75 126/83/125 133/84/126
f 127/79/121 38/36/45 134/85/127
f 135/86/128 129/81/123 128/80/122
f 131/82/124 75/55/76 136/85/129
f 133/84/126 137/87/130 136/85/129
f 137/87/130 133/84/126 126/83/125
f 127/79/121 138/88/131 147/89/132
f 127/79/121 37/90/133 138/88/131
f 138/88/131 37/90/133 139/91/134
f 37/90/133 2/92/135 139/91/134
f 141/93/136 139/91/134 2/92/135
f 140/94/137 126/83/125 144/95/138
f 131/82/124 142/96/139 130/97/140
f 131/82/124 73/98/141 146/99/142
f 143/100/143 146/99/142 74/101/144
f 145/102/145 128/80/122 130/97/140
f 145/102/145 130/97/140 138/88/131
f 141/93/136 140/94/137 146/99/142
f 140/94/137 144/95/138 146/99/142
f 150/103/146 151/104/147 148/17/17
f 149/105/148 148/17/17 154/106/149
f 158/107/150 156/108/151 157/109/152
f 159/110/153 160/69/103 158/107/150
f 148/17/17 149/105/148 14/18/18
f 150/103/146 148/17/17 17/111/24
f 154/106/149 153/112/154 27/113/37
f 156/108/151 155/114/155 67/44/53
f 157/109/152 156/108/151 64/115/38
f 152/116/156 151/104/147 97/58/82
f 153/112/154 152/116/156 95/117/91
f 160/69/103 159/110/153 110/70/104
f 161/118/157 160/69/103 49/111/110
f 158/107/150 157/109/152 120/119/116
f 47/42/51 31/9/9 12/32/21
f 9/7/7 132/54/75 77/37/77
f 132/54/75 9/7/7 3/1/1
f 10/120/158 9/7/7 77/37/77
f 4/8/8 33/13/13 6/2/2
f 5/12/12 9/7/7 10/120/158
f 17/111/24 148/17/17 16/19/19
f 16/19/19 18/121/28 17/111/24
f 19/22/25 21/22/22 18/22/28
f 21/22/22 89/22/26 88/22/23
f 18/22/28 15/22/86 22/22/29
f 25/23/30 26/30/40 24/24/31
f 26/30/40 25/23/30 94/122/35
f 14/18/18 149/105/148 23/25/32
f 23/25/32 149/105/148 154/106/149
f 29/22/39 8/6/6 93/22/92
f 1/26/36 8/6/6 29/22/39
f 27/27/37 1/26/36 29/22/39
f 30/20/20 12/21/21 82/60/93
f 13/29/4 26/30/40 83/61/94
f 14/18/18 13/29/4 12/21/21
f 8/6/6 1/26/36 48/16/16
f 31/9/9 45/123/159 44/10/10
f 1/26/36 109/64/97 48/16/16
f 40/37/46 39/14/14 36/15/15
f 47/42/51 46/78/120 45/123/159
f 52/43/52 51/124/62 66/20/106
f 51/124/62 53/125/61 66/20/106
f 67/44/53 155/114/155 50/45/54
f 58/126/63 155/114/155 49/111/110
f 58/126/63 51/124/62 50/45/54
f 55/22/55 56/22/58 54/22/109
f 49/22/110 54/22/109 58/22/63
f 58/22/63 54/22/109 56/22/58
f 59/74/117 61/122/68 68/46/64
f 60/47/65 68/46/64 61/122/68
f 64/115/38 120/119/116 157/109/152
f 64/115/38 156/108/151 60/47/65
f 64/115/38 60/47/65 61/122/68
f 120/27/116 64/28/38 27/27/37
f 62/22/66 1/26/36 64/28/38
f 52/43/52 66/20/106 47/48/51
f 68/46/64 67/44/53 48/127/16
f 45/123/159 31/9/9 47/42/51
f 69/49/70 46/78/120 123/68/102
f 44/10/10 45/123/159 69/49/70
f 46/78/120 69/49/70 45/123/159
f 103/50/71 34/38/48 35/35/44
f 124/39/49 34/38/48 103/50/71
f 82/128/93 81/33/42 80/129/160
f 82/128/93 80/129/160 125/75/118
f 100/5/5 13/4/4 83/61/94
f 137/87/130 73/98/141 136/85/129
f 77/37/77 76/56/78 72/52/73
f 100/5/5 93/22/92 8/6/6
f 82/128/93 109/64/97 83/61/94
f 86/57/81 85/124/87 30/20/20
f 85/124/87 15/125/86 30/20/20
f 97/58/82 151/104/147 84/45/83
f 91/126/88 151/104/147 17/111/24
f 91/126/88 85/124/87 84/45/83
f 89/22/26 19/22/25 87/22/84
f 89/22/26 87/22/84 88/22/23
f 17/22/24 88/22/23 91/22/88
f 91/22/88 88/22/23 87/22/84
f 26/30/40 94/122/35 98/59/89
f 92/47/90 98/59/89 94/122/35
f 95/117/91 27/113/37 153/112/154
f 95/117/91 152/116/156 92/47/90
f 95/117/91 92/47/90 94/122/35
f 27/27/37 95/28/91 120/27/116
f 93/22/92 100/5/5 95/28/91
f 86/57/81 30/20/20 82/60/93
f 98/59/89 97/58/82 83/61/94
f 99/34/43 81/33/42 32/11/11
f 79/62/95 80/129/160 99/34/43
f 81/33/42 99/34/43 80/129/160
f 6/2/2 70/38/79 71/51/72
f 33/13/13 70/38/79 6/2/2
f 82/128/93 125/75/118 108/77/107
f 135/86/128 74/101/144 2/92/135
f 107/7/100 38/36/45 40/37/46
f 43/120/161 107/7/100 40/37/46
f 125/75/118 80/129/160 79/62/95
f 125/75/118 79/62/95 104/63/96
f 102/67/101 124/39/49 103/50/71
f 42/12/47 107/7/100 43/120/161
f 109/64/97 82/128/93 108/130/107
f 49/111/110 160/69/103 111/19/105
f 111/19/105 112/121/111 49/111/110
f 113/22/57 115/22/108 112/22/111
f 115/22/108 55/22/55 54/22/109
f 112/22/111 53/22/61 116/22/59
f 119/23/112 59/74/117 118/72/113
f 59/74/117 119/23/112 61/122/68
f 110/70/104 159/110/153 117/25/114
f 117/25/114 159/110/153 158/107/150
f 100/5/5 106/65/98 63/22/67
f 120/27/116 100/5/5 63/22/67
f 66/20/106 108/71/107 47/48/51
f 110/70/104 109/73/97 108/71/107
f 106/65/98 100/5/5 83/61/94
f 101/66/99 105/53/74 76/56/78
f 127/79/121 126/83/125 3/1/1
f 127/79/121 147/89/132 126/83/125
f 131/82/124 128/80/122 101/66/99
f 131/82/124 130/97/140 128/80/122
f 136/85/129 75/55/76 132/54/75
f 132/54/75 3/1/1 126/83/125
f 37/90/133 127/79/121 134/85/127
f 129/81/123 134/85/127 38/36/45
f 135/86/128 145/102/145 74/101/144
f 128/80/122 145/102/145 135/86/128
f 73/98/141 131/82/124 136/85/129
f 133/84/126 136/85/129 132/54/75
f 137/87/130 140/94/137 2/92/135
f 126/83/125 140/94/137 137/87/130
f 140/94/137 141/93/136 2/92/135
f 145/102/145 143/100/143 74/101/144
f 146/99/142 144/95/138 142/96/139
f 152/116/156 153/112/154 154/106/149
f 152/116/156 154/106/149 151/104/147
f 154/106/149 148/17/17 151/104/147
f 161/118/157 155/114/155 160/69/103
f 60/47/65 156/108/151 67/44/53
f 155/114/155 161/118/157 49/111/110
f 92/47/90 152/116/156 97/58/82
f 151/104/147 150/103/146 17/111/24
f 11/31/41 81/33/42 82/128/93 12/32/21
f 30/20/20 15/125/86 18/121/28 16/19/19
f 35/35/44 3/1/1 7/3/3 44/10/10
f 154/106/149 27/113/37 23/25/32
f 27/113/37 25/23/30 23/25/32
f 28/22/33 94/22/35 25/22/30
f 37/90/133 134/85/127 129/81/123 135/86/128
f 43/120/161 40/37/46 41/40/50 42/12/47
f 135/86/128 2/92/135 37/90/133
f 36/15/15 34/38/48 41/40/50 40/37/46
f 48/127/16 109/73/97 59/74/117 68/46/64
f 155/114/155 58/126/63 50/45/54
f 50/45/54 51/124/62 52/43/52
f 71/51/72 105/53/74 104/63/96 79/62/95
f 47/48/51 48/127/16 67/44/53
f 10/120/158 77/37/77 78/40/80 5/12/12
f 137/87/130 2/92/135 73/98/141
f 2/92/135 74/101/144 73/98/141
f 72/52/73 70/38/79 78/40/80 77/37/77
f 42/12/47 124/39/49 102/67/101 107/7/100
f 151/104/147 91/126/88 84/45/83
f 84/45/83 85/124/87 86/57/81
f 82/60/93 83/61/94 97/58/82
f 122/76/119 46/78/120 47/42/51 108/77/107
f 66/20/106 53/125/61 112/121/111 111/19/105
f 147/89/132 130/97/140 142/96/139 144/95/138
f 158/107/150 120/119/116 117/25/114
f 120/119/116 119/23/112 117/25/114
f 121/22/115 61/22/68 119/22/112
f 127/79/121 39/14/14 38/36/45
f 131/82/124 76/56/78 75/55/76
f 73/98/141 74/101/144 146/99/142
f 147/89/132 144/95/138 126/83/125
f 142/96/139 131/82/124 146/99/142
f 141/93/136 143/100/143 145/102/145 139/91/134
f 130/97/140 147/89/132 138/88/131
f 145/102/145 138/88/131 139/91/134
f 160/69/103 155/114/155 156/108/151 158/107/150
f 141/93/136 146/99/142 143/100/143
